<?xml version="1.0" encoding="UTF-8"?>
<!DOCTYPE svg PUBLIC "-//W3C//DTD SVG 1.1//EN" "http://www.w3.org/Graphics/SVG/1.1/DTD/svg11.dtd">
<svg xmlns="http://www.w3.org/2000/svg" version="1.1" width="180px" height="180px" style="shape-rendering:geometricPrecision; text-rendering:geometricPrecision; image-rendering:optimizeQuality; fill-rule:evenodd; clip-rule:evenodd" xmlns:xlink="http://www.w3.org/1999/xlink">
<g><path style="opacity:0.879" fill="#565656" d="M 89.5,-0.5 C 89.8333,-0.5 90.1667,-0.5 90.5,-0.5C 94.4708,13.4126 99.1375,27.4126 104.5,41.5C 98.9508,38.9437 93.9508,35.6103 89.5,31.5C 89.5,20.8333 89.5,10.1667 89.5,-0.5 Z"/></g>
<g><path style="opacity:0.912" fill="#767676" d="M 87.5,-0.5 C 88.1667,-0.5 88.8333,-0.5 89.5,-0.5C 89.5,10.1667 89.5,20.8333 89.5,31.5C 84.4151,35.2558 79.0818,38.5891 73.5,41.5C 78.8587,27.4242 83.5253,13.4242 87.5,-0.5 Z"/></g>
<g><path style="opacity:0.937" fill="#777777" d="M 67.5,45.5 C 61.1461,46.3708 54.8127,47.3708 48.5,48.5C 41.4454,40.4435 33.7787,33.1102 25.5,26.5C 25.3691,25.6236 25.7025,24.9569 26.5,24.5C 40.3243,31.321 53.9909,38.321 67.5,45.5 Z"/></g>
<g><path style="opacity:0.902" fill="#959595" d="M 152.5,26.5 C 144.221,33.1102 136.555,40.4435 129.5,48.5C 123.187,47.3708 116.854,46.3708 110.5,45.5C 124.009,38.321 137.676,31.321 151.5,24.5C 152.298,24.9569 152.631,25.6236 152.5,26.5 Z"/></g>
<g><path style="opacity:0.904" fill="#5f5f5f" d="M 25.5,26.5 C 33.7787,33.1102 41.4454,40.4435 48.5,48.5C 47.608,54.8518 46.608,61.1851 45.5,67.5C 38.0907,54.1985 31.4241,40.5319 25.5,26.5 Z"/></g>
<g><path style="opacity:0.884" fill="#414141" d="M 152.5,26.5 C 146.576,40.5319 139.909,54.1985 132.5,67.5C 131.392,61.1851 130.392,54.8518 129.5,48.5C 136.555,40.4435 144.221,33.1102 152.5,26.5 Z"/></g>
<g><path style="opacity:0.954" fill="#4a4a4a" d="M 89.5,31.5 C 93.9508,35.6103 98.9508,38.9437 104.5,41.5C 105.043,41.56 105.376,41.8933 105.5,42.5C 94.5,43.8333 83.5,43.8333 72.5,42.5C 72.6236,41.8933 72.9569,41.56 73.5,41.5C 79.0818,38.5891 84.4151,35.2558 89.5,31.5 Z"/></g>
<g><path style="opacity:0.998" fill="#898989" d="M 85.5,45.5 C 89.9315,45.2307 94.2648,45.564 98.5,46.5C 98.1743,49.3113 97.3409,51.978 96,54.5C 94.0139,60.0559 95.8473,63.0559 101.5,63.5C 102.514,64.6737 103.847,65.3404 105.5,65.5C 107.862,68.192 110.196,70.8587 112.5,73.5C 116.009,80.3807 117.343,87.7141 116.5,95.5C 115.596,96.209 115.263,97.209 115.5,98.5C 113.389,105.274 109.389,110.607 103.5,114.5C 91.9143,119.251 80.9143,118.251 70.5,111.5C 69.5,109.833 68.1667,108.5 66.5,107.5C 66.2671,105.938 65.6005,104.605 64.5,103.5C 63.8916,100.673 62.8916,98.0067 61.5,95.5C 61.5,91.5 61.5,87.5 61.5,83.5C 63.1942,80.4253 64.0275,77.092 64,73.5C 59.6836,70.5434 55.8503,67.8767 52.5,65.5C 53.1667,63.8333 53.8333,62.1667 54.5,60.5C 55.1667,60.5 55.5,60.1667 55.5,59.5C 57.2279,57.7745 59.2279,56.4411 61.5,55.5C 61.8588,57.371 62.8588,58.871 64.5,60C 64.1667,60.3333 63.8333,60.6667 63.5,61C 65.7047,63.5402 68.2047,65.7068 71,67.5C 75.5797,64.0282 80.7464,62.0282 86.5,61.5C 85.8058,56.1951 85.4724,50.8617 85.5,45.5 Z"/></g>
<g><path style="opacity:0.974" fill="#414141" d="M 67.5,45.5 C 63.1028,49.8918 59.1028,54.5584 55.5,59.5C 54.8333,59.5 54.5,59.8333 54.5,60.5C 51.2327,62.4273 48.2327,64.7606 45.5,67.5C 46.608,61.1851 47.608,54.8518 48.5,48.5C 54.8127,47.3708 61.1461,46.3708 67.5,45.5 Z"/></g>
<g><path style="opacity:0.917" fill="#565656" d="M 110.5,45.5 C 116.854,46.3708 123.187,47.3708 129.5,48.5C 130.392,54.8518 131.392,61.1851 132.5,67.5C 129.767,64.7606 126.767,62.4273 123.5,60.5C 119.563,55.2243 115.229,50.2243 110.5,45.5 Z"/></g>
<g><path style="opacity:0.943" fill="#7c7c7c" d="M 98.5,46.5 C 101.692,46.4045 104.692,47.0712 107.5,48.5C 107.539,49.5832 107.873,50.5832 108.5,51.5C 106.167,55.4946 103.834,59.4946 101.5,63.5C 95.8473,63.0559 94.0139,60.0559 96,54.5C 97.3409,51.978 98.1743,49.3113 98.5,46.5 Z"/></g>
<g><path style="opacity:0.957" fill="#939393" d="M 85.5,45.5 C 85.4724,50.8617 85.8058,56.1951 86.5,61.5C 80.7464,62.0282 75.5797,64.0282 71,67.5C 68.2047,65.7068 65.7047,63.5402 63.5,61C 63.8333,60.6667 64.1667,60.3333 64.5,60C 62.8588,58.871 61.8588,57.371 61.5,55.5C 68.0478,48.8986 76.0478,45.5653 85.5,45.5 Z"/></g>
<g><path style="opacity:0.964" fill="#6f6f6f" d="M 107.5,48.5 C 110.81,50.4821 113.81,52.8154 116.5,55.5C 113.585,58.953 110.752,62.6197 108,66.5C 107.329,65.7476 106.496,65.4142 105.5,65.5C 103.847,65.3404 102.514,64.6737 101.5,63.5C 103.834,59.4946 106.167,55.4946 108.5,51.5C 107.873,50.5832 107.539,49.5832 107.5,48.5 Z"/></g>
<g><path style="opacity:0.955" fill="#626262" d="M 116.5,55.5 C 119.093,56.7536 121.427,58.4202 123.5,60.5C 124.471,62.4832 125.471,64.4832 126.5,66.5C 122.066,70.0519 117.399,72.3852 112.5,73.5C 110.196,70.8587 107.862,68.192 105.5,65.5C 106.496,65.4142 107.329,65.7476 108,66.5C 110.752,62.6197 113.585,58.953 116.5,55.5 Z"/></g>
<g><path style="opacity:0.938" fill="#7b7b7b" d="M 52.5,65.5 C 55.8503,67.8767 59.6836,70.5434 64,73.5C 64.0275,77.092 63.1942,80.4253 61.5,83.5C 61.5944,80.4594 60.0944,78.7928 57,78.5C 54.9455,78.848 52.9455,78.1814 51,76.5C 50.586,76.9574 50.086,77.2907 49.5,77.5C 48.8243,76.3984 48.1577,75.3984 47.5,74.5C 48.3901,71.0516 50.0568,68.0516 52.5,65.5 Z"/></g>
<g><path style="opacity:0.888" fill="#6d6d6d" d="M 136.5,73.5 C 136.351,74.552 136.517,75.552 137,76.5C 140.082,80.7336 142.916,85.0669 145.5,89.5C 141.962,94.5802 138.962,99.9135 136.5,105.5C 135.172,100.544 134.505,95.2109 134.5,89.5C 134.505,83.7891 135.172,78.4558 136.5,73.5 Z"/></g>
<g><path style="opacity:0.927" fill="#7d7d7d" d="M 136.5,73.5 C 149.564,79.0219 162.898,83.8553 176.5,88C 179.113,89.0712 179.113,89.9045 176.5,90.5C 166.347,89.5058 156.014,89.1724 145.5,89.5C 142.916,85.0669 140.082,80.7336 137,76.5C 136.517,75.552 136.351,74.552 136.5,73.5 Z"/></g>
<g><path style="opacity:0.882" fill="#939393" d="M 42.5,73.5 C 39.3243,79.1894 35.6577,84.5227 31.5,89.5C 21.6522,89.8271 11.9856,89.4938 2.5,88.5C 15.7312,83.5299 29.0645,78.5299 42.5,73.5 Z"/></g>
<g><path style="opacity:0.938" fill="#565656" d="M 126.5,66.5 C 129.838,70.4909 131.838,75.1575 132.5,80.5C 131.596,81.209 131.263,82.209 131.5,83.5C 127.625,83.8958 123.792,84.5625 120,85.5C 119.055,85.0946 118.388,84.428 118,83.5C 117.51,84.7932 117.343,86.1266 117.5,87.5C 117.806,90.3854 117.473,93.0521 116.5,95.5C 117.343,87.7141 116.009,80.3807 112.5,73.5C 117.399,72.3852 122.066,70.0519 126.5,66.5 Z"/></g>
<g><path style="opacity:0.944" fill="#4a4a4a" d="M 42.5,73.5 C 43.4944,83.9869 43.8278,94.6536 43.5,105.5C 33.9515,102.04 24.2849,98.8728 14.5,96C 10.29,94.3914 6.29004,92.5581 2.5,90.5C 12.3478,90.8271 22.0144,90.4938 31.5,89.5C 35.6577,84.5227 39.3243,79.1894 42.5,73.5 Z"/></g>
<g><path style="opacity:0.97" fill="#4d4d4d" d="M 132.5,80.5 C 132.5,83.1667 132.5,85.8333 132.5,88.5C 131.566,89.5676 131.232,90.901 131.5,92.5C 127.202,91.8005 122.869,91.4672 118.5,91.5C 118.768,89.901 118.434,88.5676 117.5,87.5C 117.343,86.1266 117.51,84.7932 118,83.5C 118.388,84.428 119.055,85.0946 120,85.5C 123.792,84.5625 127.625,83.8958 131.5,83.5C 131.263,82.209 131.596,81.209 132.5,80.5 Z"/></g>
<g><path style="opacity:0.987" fill="#6f6f6f" d="M 47.5,74.5 C 48.1577,75.3984 48.8243,76.3984 49.5,77.5C 50.086,77.2907 50.586,76.9574 51,76.5C 52.9455,78.1814 54.9455,78.848 57,78.5C 60.0944,78.7928 61.5944,80.4594 61.5,83.5C 61.5,87.5 61.5,91.5 61.5,95.5C 60.6981,94.0484 60.1981,92.3817 60,90.5C 58.9025,91.9675 57.4025,92.8008 55.5,93C 52.1832,93.4983 48.8499,93.665 45.5,93.5C 45.3341,88.4889 45.5007,83.4889 46,78.5C 46.21,76.9419 46.71,75.6085 47.5,74.5 Z"/></g>
<g><path style="opacity:0.983" fill="#474747" d="M 117.5,87.5 C 118.434,88.5676 118.768,89.901 118.5,91.5C 122.869,91.4672 127.202,91.8005 131.5,92.5C 131.232,90.901 131.566,89.5676 132.5,88.5C 132.817,92.7016 132.483,96.7016 131.5,100.5C 130.766,101.929 129.599,102.929 128,103.5C 125.861,102.764 123.861,101.764 122,100.5C 120.605,101.815 119.605,101.481 119,99.5C 118.282,100.451 117.449,100.617 116.5,100C 117.517,98.9505 117.684,97.7839 117,96.5C 116.722,97.4158 116.222,98.0825 115.5,98.5C 115.263,97.209 115.596,96.209 116.5,95.5C 117.473,93.0521 117.806,90.3854 117.5,87.5 Z"/></g>
<g><path style="opacity:1" fill="#5a5a5a" d="M -0.5,88.5 C 0.5,88.5 1.5,88.5 2.5,88.5C 11.9856,89.4938 21.6522,89.8271 31.5,89.5C 22.0144,90.4938 12.3478,90.8271 2.5,90.5C 1.5,90.5 0.5,90.5 -0.5,90.5C -0.5,89.8333 -0.5,89.1667 -0.5,88.5 Z"/></g>
<g><path style="opacity:0.964" fill="#4a4a4a" d="M 145.5,89.5 C 156.014,89.1724 166.347,89.5058 176.5,90.5C 163.109,95.0785 149.776,100.078 136.5,105.5C 138.962,99.9135 141.962,94.5802 145.5,89.5 Z"/></g>
<g><path style="opacity:0.921" fill="#636363" d="M 61.5,95.5 C 62.8916,98.0067 63.8916,100.673 64.5,103.5C 60.4464,106.281 56.2797,108.947 52,111.5C 51.5831,110.244 50.7498,109.577 49.5,109.5C 46.6148,104.626 45.2814,99.2926 45.5,93.5C 48.8499,93.665 52.1832,93.4983 55.5,93C 57.4025,92.8008 58.9025,91.9675 60,90.5C 60.1981,92.3817 60.6981,94.0484 61.5,95.5 Z"/></g>
<g><path style="opacity:0.951" fill="#414141" d="M 131.5,100.5 C 129.066,111.037 123.399,119.37 114.5,125.5C 112.816,121.634 110.482,118.134 107.5,115C 105.885,114.938 104.552,114.771 103.5,114.5C 109.389,110.607 113.389,105.274 115.5,98.5C 116.222,98.0825 116.722,97.4158 117,96.5C 117.684,97.7839 117.517,98.9505 116.5,100C 117.449,100.617 118.282,100.451 119,99.5C 119.605,101.481 120.605,101.815 122,100.5C 123.861,101.764 125.861,102.764 128,103.5C 129.599,102.929 130.766,101.929 131.5,100.5 Z"/></g>
<g><path style="opacity:0.952" fill="#5a5a5a" d="M 64.5,103.5 C 65.6005,104.605 66.2671,105.938 66.5,107.5C 66.16,109.679 65.16,111.512 63.5,113C 60.7583,114.07 58.2583,115.57 56,117.5C 55.5831,116.244 54.7498,115.577 53.5,115.5C 51.8079,113.795 50.4746,111.795 49.5,109.5C 50.7498,109.577 51.5831,110.244 52,111.5C 56.2797,108.947 60.4464,106.281 64.5,103.5 Z"/></g>
<g><path style="opacity:0.938" fill="#545454" d="M 66.5,107.5 C 68.1667,108.5 69.5,109.833 70.5,111.5C 70.5106,113.017 71.1772,114.184 72.5,115C 69.5927,118.696 66.5927,122.196 63.5,125.5C 60.2139,123.549 57.2139,121.215 54.5,118.5C 54.4431,117.391 54.1098,116.391 53.5,115.5C 54.7498,115.577 55.5831,116.244 56,117.5C 58.2583,115.57 60.7583,114.07 63.5,113C 65.16,111.512 66.16,109.679 66.5,107.5 Z"/></g>
<g><path style="opacity:0.936" fill="#8c8c8c" d="M 132.5,111.5 C 131.392,117.815 130.392,124.148 129.5,130.5C 127.901,130.232 126.568,130.566 125.5,131.5C 120.5,132.167 115.5,132.833 110.5,133.5C 117.452,125.881 124.785,118.548 132.5,111.5 Z"/></g>
<g><path style="opacity:0.961" fill="#7c7c7c" d="M 45.5,111.5 C 46.6292,117.813 47.6292,124.146 48.5,130.5C 41.4454,138.556 33.7787,145.89 25.5,152.5C 31.4241,138.468 38.0907,124.801 45.5,111.5 Z"/></g>
<g><path style="opacity:0.942" fill="#646464" d="M 45.5,111.5 C 48.2327,114.239 51.2327,116.573 54.5,118.5C 58.489,123.821 62.8223,128.821 67.5,133.5C 61.145,132.629 54.8116,131.629 48.5,130.5C 47.6292,124.146 46.6292,117.813 45.5,111.5 Z"/></g>
<g><path style="opacity:0.957" fill="#4a4a4a" d="M 70.5,111.5 C 80.9143,118.251 91.9143,119.251 103.5,114.5C 104.552,114.771 105.885,114.938 107.5,115C 110.482,118.134 112.816,121.634 114.5,125.5C 107.403,131.643 99.0699,134.31 89.5,133.5C 79.5615,134.391 70.8948,131.724 63.5,125.5C 66.5927,122.196 69.5927,118.696 72.5,115C 71.1772,114.184 70.5106,113.017 70.5,111.5 Z"/></g>
<g><path style="opacity:0.904" fill="#595959" d="M 132.5,111.5 C 139.909,124.801 146.576,138.468 152.5,152.5C 144.756,146.261 137.422,139.428 130.5,132C 128.866,131.506 127.199,131.34 125.5,131.5C 126.568,130.566 127.901,130.232 129.5,130.5C 130.392,124.148 131.392,117.815 132.5,111.5 Z"/></g>
<g><path style="opacity:0.92" fill="#474747" d="M 48.5,130.5 C 54.8116,131.629 61.145,132.629 67.5,133.5C 53.9909,140.679 40.3243,147.679 26.5,154.5C 25.7025,154.043 25.3691,153.376 25.5,152.5C 33.7787,145.89 41.4454,138.556 48.5,130.5 Z"/></g>
<g><path style="opacity:0.907" fill="#4c4c4c" d="M 125.5,131.5 C 127.199,131.34 128.866,131.506 130.5,132C 137.422,139.428 144.756,146.261 152.5,152.5C 152.631,153.376 152.298,154.043 151.5,154.5C 137.676,147.679 124.009,140.679 110.5,133.5C 115.5,132.833 120.5,132.167 125.5,131.5 Z"/></g>
<g><path style="opacity:0.895" fill="#8c8c8c" d="M 103.5,135.5 C 103.586,136.496 103.252,137.329 102.5,138C 97.9845,141.03 93.6512,144.197 89.5,147.5C 84.4151,143.744 79.0818,140.411 73.5,137.5C 72.9569,137.44 72.6236,137.107 72.5,136.5C 82.8119,135.501 93.1452,135.168 103.5,135.5 Z"/></g>
<g><path style="opacity:0.874" fill="#616161" d="M 73.5,137.5 C 79.0818,140.411 84.4151,143.744 89.5,147.5C 89.5,158.167 89.5,168.833 89.5,179.5C 88.8333,179.5 88.1667,179.5 87.5,179.5C 83.5331,165.599 78.8664,151.599 73.5,137.5 Z"/></g>
<g><path style="opacity:0.87" fill="#434343" d="M 103.5,135.5 C 104.376,135.369 105.043,135.702 105.5,136.5C 99.4643,150.813 94.4643,165.146 90.5,179.5C 90.1667,179.5 89.8333,179.5 89.5,179.5C 89.5,168.833 89.5,158.167 89.5,147.5C 93.6512,144.197 97.9845,141.03 102.5,138C 103.252,137.329 103.586,136.496 103.5,135.5 Z"/></g>
</svg>
